<svg width="109" height="109" viewBox="0 0 109 109" fill="none" xmlns="http://www.w3.org/2000/svg">
<path d="M54.1667 0C24.2125 0 0 24.2125 0 54.1667C0 84.1208 24.2125 108.333 54.1667 108.333C84.1208 108.333 108.333 84.1208 108.333 54.1667C108.333 24.2125 84.1208 0 54.1667 0ZM70.9583 27.4625C71.7167 27.4625 72.475 27.7333 73.125 28.3292L80.0042 35.2083C81.25 36.4 81.25 38.2958 80.0042 39.4333L74.5875 44.85L63.4833 33.7458L68.9 28.3292C69.4417 27.7333 70.2 27.4625 70.9583 27.4625ZM60.2875 36.8875L71.4458 48.0458L38.6208 80.8708H27.4625V69.7125L60.2875 36.8875Z" fill="#14AE5C"/>
</svg>
